<?xml version="1.0" encoding="UTF-8" standalone="no"?>
<!-- Created with Inkscape (http://www.inkscape.org/) -->

<svg
   width="64"
   height="64"
   viewBox="0 0 16.933333 16.933334"
   version="1.1"
   id="svg5"
   inkscape:version="1.2.1 (9c6d41e410, 2022-07-14, custom)"
   sodipodi:docname="menu.svg"
   xmlns:inkscape="http://www.inkscape.org/namespaces/inkscape"
   xmlns:sodipodi="http://sodipodi.sourceforge.net/DTD/sodipodi-0.dtd"
   xmlns="http://www.w3.org/2000/svg"
   xmlns:svg="http://www.w3.org/2000/svg">
  <sodipodi:namedview
     id="namedview7"
     pagecolor="#333333"
     bordercolor="#666666"
     borderopacity="1.0"
     inkscape:pageshadow="2"
     inkscape:pageopacity="0"
     inkscape:pagecheckerboard="0"
     inkscape:document-units="mm"
     showgrid="false"
     units="px"
     width="120px"
     inkscape:zoom="8.16734"
     inkscape:cx="22.222658"
     inkscape:cy="21.91656"
     inkscape:window-width="1920"
     inkscape:window-height="1022"
     inkscape:window-x="0"
     inkscape:window-y="24"
     inkscape:window-maximized="1"
     inkscape:current-layer="layer1"
     showguides="true"
     inkscape:guide-bbox="true"
     inkscape:showpageshadow="0"
     inkscape:deskcolor="#333333">
    <inkscape:grid
       type="xygrid"
       id="grid1045" />
  </sodipodi:namedview>
  <defs
     id="defs2">
    <clipPath
       clipPathUnits="userSpaceOnUse"
       id="clipPath1633">
      <path
         d="m 0.23047689,-3.96875 c -2.03320019,0 -3.67006019,1.63686 -3.67006019,3.67006023 V 16.173689 c 0,2.033201 1.63686,3.670061 3.67006019,3.670061 H 16.702856 c 2.033201,0 3.67006,-1.63686 3.67006,-3.670061 V -0.29868977 C 20.372916,-2.33189 18.736057,-3.96875 16.702856,-3.96875 Z M 3.707784,1.0583333 h 9.517765 c 1.174738,0 2.120284,0.9455461 2.120284,2.1202841 v 9.5177646 c 0,1.174738 -0.945546,2.120284 -2.120284,2.120284 H 3.707784 C 2.5330461,14.816666 1.5875,13.87112 1.5875,12.696382 V 3.1786174 c 0,-1.174738 0.9455461,-2.1202841 2.120284,-2.1202841 z"
         id="path1635"
         style="opacity:0.95;fill:#ffffff;stroke-width:0.973839;stroke-linecap:round;stroke-linejoin:round" />
    </clipPath>
  </defs>
  <g
     inkscape:label="图层 1"
     inkscape:groupmode="layer"
     id="layer1">
    <path
       style="color:#000000;opacity:0.97;fill:#0e111c;fill-opacity:1;stroke-width:0.529167;stroke-linecap:round;stroke-linejoin:round;-inkscape-stroke:none;paint-order:stroke fill markers"
       d="m 3.7079657,1.5875003 h 9.5174023 c 1.174738,0 2.120465,0.9457276 2.120465,2.1204655 v 9.5174022 c 0,1.174738 -0.945727,2.120465 -2.120465,2.120465 H 3.7079657 c -1.1747379,0 -2.1204655,-0.945727 -2.1204655,-2.120465 V 3.7079658 c 0,-1.1747379 0.9457276,-2.1204655 2.1204655,-2.1204655 z"
       id="path979" />
  </g>
</svg>
