<?xml version="1.0" encoding="UTF-8" standalone="no"?>
<svg
   width="24"
   height="24"
   fill="#808080"
   version="1.1"
   viewBox="0 0 24 24"
   id="svg4"
   sodipodi:docname="unmaximize.svg"
   inkscape:version="1.2.1 (9c6d41e410, 2022-07-14, custom)"
   xmlns:inkscape="http://www.inkscape.org/namespaces/inkscape"
   xmlns:sodipodi="http://sodipodi.sourceforge.net/DTD/sodipodi-0.dtd"
   xmlns="http://www.w3.org/2000/svg"
   xmlns:svg="http://www.w3.org/2000/svg">
  <defs
     id="defs8" />
  <sodipodi:namedview
     id="namedview6"
     pagecolor="#505050"
     bordercolor="#eeeeee"
     borderopacity="1"
     inkscape:showpageshadow="0"
     inkscape:pageopacity="0"
     inkscape:pagecheckerboard="0"
     inkscape:deskcolor="#505050"
     showgrid="false"
     inkscape:zoom="27.812867"
     inkscape:cx="9.2942595"
     inkscape:cy="12.835786"
     inkscape:window-width="1920"
     inkscape:window-height="1022"
     inkscape:window-x="0"
     inkscape:window-y="24"
     inkscape:window-maximized="1"
     inkscape:current-layer="svg4" />
  <g
     id="g1149"
     transform="translate(-2e-5,-2.192362)">
    <path
       d="m 12,8 c -0.01598,0 -0.03291,4.229e-4 -0.04883,0.00195 -0.07895,0.00789 -0.15773,0.03453 -0.22656,0.080078 -0.01387,0.00918 -0.0279,0.020538 -0.04101,0.03125 -0.01271,0.010444 -0.02522,0.021317 -0.03711,0.033203 l -5.6582,5.6582 c -0.19587,0.19587 -0.19587,0.51116 0,0.70703 0.19587,0.19587 0.51116,0.19587 0.70703,0 l 5.3047,-5.3047 5.3047,5.3047 c 0.19587,0.19587 0.51116,0.19587 0.70703,0 0.19587,-0.19587 0.19587,-0.51116 0,-0.70703 l -5.6582,-5.6582 c -0.01189,-0.011887 -0.0244,-0.022759 -0.03711,-0.033203 -3.95e-4,-3.227e-4 -0.0016,3.214e-4 -0.002,0 -0.07819,-0.063852 -0.17077,-0.10185 -0.26562,-0.11133 -6.36e-4,-6.11e-5 -0.0013,5.87e-5 -0.002,0 -0.01582,-0.00153 -0.03081,-0.00195 -0.04678,-0.00195 z"
       fill="#808080"
       stroke-linecap="round"
       stroke-linejoin="round"
       stroke-width="1.8974"
       style="fill:#809dbd;fill-opacity:1;paint-order:stroke fill markers"
       id="path2" />
    <path
       d="m 12,20.384726 c -0.01598,0 -0.03291,-4.23e-4 -0.04883,-0.002 -0.07895,-0.0079 -0.15773,-0.03453 -0.22656,-0.08008 -0.01387,-0.0092 -0.0279,-0.02054 -0.04101,-0.03125 -0.01271,-0.01044 -0.02522,-0.02132 -0.03711,-0.0332 l -5.6582,-5.6582 c -0.19587,-0.19587 -0.19587,-0.51116 0,-0.70703 0.19587,-0.19587 0.51116,-0.19587 0.70703,0 l 5.3047,5.3047 5.3047,-5.3047 c 0.19587,-0.19587 0.51116,-0.19587 0.70703,0 0.19587,0.19587 0.19587,0.51116 0,0.70703 l -5.6582,5.6582 c -0.01189,0.01189 -0.0244,0.02276 -0.03711,0.0332 -3.95e-4,3.23e-4 -0.0016,-3.21e-4 -0.002,0 -0.07819,0.06385 -0.17077,0.10185 -0.26562,0.11133 -6.36e-4,6.1e-5 -0.0013,-5.8e-5 -0.002,0 -0.01582,0.0015 -0.03081,0.002 -0.04678,0.002 z"
       fill="#808080"
       stroke-linecap="round"
       stroke-linejoin="round"
       stroke-width="1.8974"
       style="fill:#809dbd;fill-opacity:1;paint-order:stroke fill markers"
       id="path1145" />
  </g>
</svg>
