<?xml version="1.0" encoding="UTF-8" standalone="no"?>
<svg
   width="35"
   height="200"
   version="1.1"
   id="svg872"
   sodipodi:docname="add-workspace-active.svg"
   inkscape:version="1.2.1 (9c6d41e410, 2022-07-14, custom)"
   xmlns:inkscape="http://www.inkscape.org/namespaces/inkscape"
   xmlns:sodipodi="http://sodipodi.sourceforge.net/DTD/sodipodi-0.dtd"
   xmlns="http://www.w3.org/2000/svg"
   xmlns:svg="http://www.w3.org/2000/svg">
  <sodipodi:namedview
     id="namedview874"
     pagecolor="#505050"
     bordercolor="#eeeeee"
     borderopacity="1"
     inkscape:showpageshadow="0"
     inkscape:pageopacity="0"
     inkscape:pagecheckerboard="0"
     inkscape:deskcolor="#505050"
     showgrid="false"
     inkscape:zoom="3.337544"
     inkscape:cx="3.1460259"
     inkscape:cy="82.99516"
     inkscape:window-width="1920"
     inkscape:window-height="1022"
     inkscape:window-x="0"
     inkscape:window-y="24"
     inkscape:window-maximized="1"
     inkscape:current-layer="svg872" />
  <defs
     id="defs862">
    <filter
       id="filter4154"
       x="-0.13200004"
       y="-0.020842111"
       width="1.2640001"
       height="1.0416842"
       color-interpolation-filters="sRGB">
      <feGaussianBlur
         stdDeviation="1.6500004"
         id="feGaussianBlur859" />
    </filter>
  </defs>
  <path
     d="m 7.2,6 h 28 v 190 h -28 c -1.108,0 -2,-0.892 -2,-2 V 8 c 0,-1.108 0.892,-2 2,-2 z"
     color="#000000"
     color-rendering="auto"
     fill="#000000"
     fill-opacity="0.44"
     filter="url(#filter4154)"
     image-rendering="auto"
     opacity="0.9"
     solid-color="#000000"
     style="isolation:auto;mix-blend-mode:normal;shape-rendering:auto"
     id="path864" />
  <g
     id="g1361">
    <path
       d="M 7,5 H 35 V 195 H 7 c -1.108,0 -2,-0.892 -2,-2 V 7 C 5,5.892 5.892,5 7,5 Z"
       color="#000000"
       color-rendering="auto"
       fill="#0860f2"
       image-rendering="auto"
       solid-color="#000000"
       style="isolation:auto;mix-blend-mode:normal;shape-rendering:auto;fill:#7699a7;fill-opacity:1"
       id="path866" />
    <path
       d="m 18,94 c -0.554,0 -1,0.446 -1,1 v 4 h -4 c -0.554,0 -1,0.446 -1,1 0,0.554 0.446,1 1,1 h 4 v 4 c 0,0.554 0.446,1 1,1 0.554,0 1,-0.446 1,-1 v -4 h 4 c 0.554,0 1,-0.446 1,-1 0,-0.554 -0.446,-1 -1,-1 h -4 v -4 c 0,-0.554 -0.446,-1 -1,-1 z m 8,6 a 8,8 0 0 1 -8,8 8,8 0 0 1 -8,-8 8,8 0 0 1 8,-8 8,8 0 0 1 8,8 z"
       color="#000000"
       color-rendering="auto"
       fill="#eceff1"
       image-rendering="auto"
       solid-color="#000000"
       style="isolation:auto;mix-blend-mode:normal;shape-rendering:auto;fill:#e5e4dd;fill-opacity:1"
       id="path868" />
  </g>
</svg>
